PathFileType	4	(X/Y/Z)	C:\Git\research_data\torsion_deformities_healthy_kinematics\simulations\P03\pre\Static01\marker_experimental_HJC.trc
DataRate	CameraRate	NumFrames	NumMarkers	Units	OrigDataRate	OrigDataStartFrame	OrigNumFrames
150	150	4	38	mm	150	113	150
Frame#	Time	C7			T10			CLAV			STRN			RBAK			SACR			LASI			RASI			LT1			LT2			LT3			LS1			LS2			LS3			LHEE			LTOE			RT1			RT2			RT3			RS1			RS2			RS3			RHEE			RTOE			LKNE			LKNM			LANK			LANM			RKNM			RKNE			RANM			RANK			LKJC			RKJC			LAJC			RAJC			LHJC			RHJC		
		X1	Y1	Z1	X2	Y2	Z2	X3	Y3	Z3	X4	Y4	Z4	X5	Y5	Z5	X6	Y6	Z6	X7	Y7	Z7	X8	Y8	Z8	X9	Y9	Z9	X10	Y10	Z10	X11	Y11	Z11	X12	Y12	Z12	X13	Y13	Z13	X14	Y14	Z14	X15	Y15	Z15	X16	Y16	Z16	X17	Y17	Z17	X18	Y18	Z18	X19	Y19	Z19	X20	Y20	Z20	X21	Y21	Z21	X22	Y22	Z22	X23	Y23	Z23	X24	Y24	Z24	X25	Y25	Z25	X26	Y26	Z26	X27	Y27	Z27	X28	Y28	Z28	X29	Y29	Z29	X30	Y30	Z30	X31	Y31	Z31	X32	Y32	Z32	X33	Y33	Z33	X34	Y34	Z34	X35	Y35	Z35	X36	Y36	Z36	X37	Y37	Z37	X38	Y38	Z38	

113	0.746667	-967.196899	1273.632202	-446.387695	-915.021118	1094.756714	-444.111023	-1097.200073	1209.760864	-432.099976	-1128.630859	1156.280762	-427.378784	-933.051086	1175.677490	-542.906921	-915.102722	874.782715	-428.578735	-1072.054932	870.615234	-278.100067	-1122.424561	876.183655	-521.511108	-1128.260498	585.992065	-242.249069	-1079.701172	474.200806	-229.520493	-1203.122070	531.655334	-275.754578	-1033.143555	217.043030	-282.094513	-950.241333	148.656082	-342.162933	-1062.009155	131.495148	-254.018860	-973.758911	41.807922	-367.938049	-1083.037231	41.303326	-262.138367	-1132.963013	605.751648	-592.268555	-1057.731201	506.743439	-585.218933	-1199.050171	533.383240	-583.007507	-1091.416260	266.028625	-587.118164	-982.996216	217.289368	-562.148743	-1118.066772	175.524521	-582.328125	-981.857117	44.987354	-500.040253	-1123.405273	41.890881	-570.386780	-1147.854736	432.551239	-267.019501	-1163.906860	421.608765	-366.636658	-994.133545	49.597336	-304.781738	-1044.829712	47.256107	-356.797699	-1167.840698	423.102753	-466.162781	-1167.493652	438.748230	-568.779785	-1062.764526	52.748436	-490.500580	-1019.144348	47.682499	-552.194397	-1155.880859	427.080017	-316.828064	-1167.667114	430.925476	-517.471252	-1019.481689	48.426720	-330.789703	-1040.954468	50.215469	-521.347473	-1025.776604	786.397836	-325.320093	-1061.978350	790.399981	-500.264895	
114	0.753333	-967.165771	1273.607178	-446.338074	-914.983093	1094.710205	-443.938751	-1097.154175	1209.692139	-432.165039	-1128.583374	1156.192627	-427.437897	-932.901672	1175.565063	-542.768982	-915.203308	874.811218	-428.590607	-1072.122314	870.536377	-278.012817	-1122.600586	876.157104	-521.422668	-1128.340454	585.946106	-242.247391	-1079.771729	474.143555	-229.535492	-1203.190918	531.615601	-275.787018	-1033.210938	217.022049	-282.103027	-950.294373	148.641800	-342.162903	-1062.076904	131.463608	-254.043152	-973.764893	41.809631	-367.951721	-1083.059814	41.315125	-262.166077	-1132.975952	605.736145	-592.285889	-1057.712036	506.761444	-585.153625	-1199.042236	533.345032	-583.086060	-1091.409058	266.028046	-587.142761	-983.023682	217.296860	-562.164978	-1118.072266	175.519058	-582.347046	-981.858337	44.986847	-500.030762	-1123.406128	41.900665	-570.379944	-1147.933838	432.523376	-267.040466	-1163.938599	421.578491	-366.654358	-994.152771	49.607655	-304.808990	-1044.850464	47.221664	-356.819885	-1167.925415	423.078766	-466.207825	-1167.496948	438.739899	-568.815857	-1062.764771	52.753334	-490.491302	-1019.138794	47.690014	-552.189209	-1155.936279	427.050934	-316.847412	-1167.711182	430.909332	-517.511841	-1019.501587	48.414658	-330.814453	-1040.951782	50.221676	-521.340271	-1025.822510	786.344754	-325.282682	-1062.102077	790.384464	-500.225361	
115	0.760000	-967.128540	1273.582642	-446.294830	-914.949707	1094.659790	-443.763306	-1097.104980	1209.626343	-432.233704	-1128.529663	1156.103027	-427.501587	-932.742065	1175.447144	-542.628479	-915.302490	874.845032	-428.597687	-1072.190552	870.458130	-277.917511	-1122.784180	876.134338	-521.325500	-1128.415771	585.900635	-242.246475	-1079.829956	474.095978	-229.565048	-1203.257568	531.575134	-275.817780	-1033.276123	217.006012	-282.113800	-950.354431	148.631516	-342.166962	-1062.140137	131.436768	-254.067200	-973.770935	41.813099	-367.964111	-1083.083008	41.326893	-262.192902	-1132.984131	605.720764	-592.301086	-1057.686646	506.778320	-585.082092	-1199.030151	533.312378	-583.162476	-1091.397461	266.026642	-587.165833	-983.047974	217.305893	-562.176880	-1118.079468	175.513336	-582.364502	-981.858032	44.986271	-500.019745	-1123.406616	41.911480	-570.370117	-1148.000000	432.503113	-267.068176	-1163.963135	421.557617	-366.683655	-994.171265	49.619251	-304.833496	-1044.869873	47.188183	-356.841064	-1168.008179	423.056213	-466.253845	-1167.496704	438.734131	-568.853821	-1062.763672	52.755505	-490.479462	-1019.131531	47.699585	-552.181763	-1155.981567	427.030365	-316.875916	-1167.752441	430.895172	-517.553833	-1019.520508	48.403717	-330.837280	-1040.947510	50.227547	-521.330566	-1025.867923	786.293496	-325.240246	-1062.230125	790.373050	-500.180272	
116	0.766667	-967.089050	1273.557251	-446.264496	-914.923706	1094.605469	-443.590027	-1097.055176	1209.565918	-432.305237	-1128.474731	1156.016968	-427.568878	-932.582275	1175.323975	-542.492126	-915.402283	874.880920	-428.600830	-1072.256714	870.382446	-277.820251	-1122.971069	876.116455	-521.223816	-1128.486084	585.857361	-242.249298	-1079.881592	474.057892	-229.606186	-1203.323730	531.535034	-275.851227	-1033.337891	216.993698	-282.126801	-950.419739	148.625641	-342.172302	-1062.198975	131.415741	-254.091064	-973.777832	41.817379	-367.975464	-1083.105591	41.337666	-262.219330	-1132.990723	605.706482	-592.312988	-1057.659058	506.793213	-585.009033	-1199.015869	533.283569	-583.233276	-1091.385376	266.023956	-587.185425	-983.067261	217.316864	-562.181274	-1118.087769	175.506577	-582.379089	-981.856140	44.985691	-500.007294	-1123.406738	41.922718	-570.357605	-1148.050049	432.483002	-267.107422	-1163.985840	421.544342	-366.731262	-994.190125	49.631355	-304.854553	-1044.887207	47.156460	-356.861176	-1168.088745	423.033875	-466.298248	-1167.494995	438.731201	-568.890808	-1062.759766	52.754375	-490.465637	-1019.122864	47.710693	-552.172241	-1156.017944	427.013672	-316.919342	-1167.791870	430.882538	-517.594543	-1019.538635	48.393909	-330.857880	-1040.941406	50.232533	-521.318909	-1025.913204	786.245119	-325.197367	-1062.361916	790.366186	-500.132972	
